<svg width="1649" height="1163" viewBox="0 0 1649 1163" fill="none" xmlns="http://www.w3.org/2000/svg">
<g clip-path="url(#clip0_375_4110)">
<rect width="1649" height="690" transform="translate(0 473)" fill="#F7F7F7"/>
<path fill-rule="evenodd" clip-rule="evenodd" d="M1280.25 1019.47C1300.5 979.774 1358.43 970.166 1396.3 993.599C1422.59 1009.86 1440.78 1038.13 1469.23 1050.27C1487.6 1058.09 1508.18 1058.28 1527.82 1061.98C1569.06 1069.81 1606.32 1095.12 1630.45 1129.24C1636.74 1138.15 1644.56 1150.71 1649.06 1163.26H1276.74C1275.19 1139.31 1273.64 1115.32 1272.05 1091.37C1270.46 1067 1269.14 1041.22 1280.25 1019.47" fill="#FFC561"/>
</g>
<rect width="1649" height="473" fill="white"/>
<path fill-rule="evenodd" clip-rule="evenodd" d="M1525.56 366.944C1534.87 358.117 1549.97 357.348 1563.37 358.328C1593.29 360.512 1622.67 368.551 1649 381.695V473H1547.06C1530.2 453.651 1522.42 428.972 1518.31 404.522C1516.15 391.483 1515.54 376.47 1525.56 366.944" fill="#7BD5E1"/>
<path fill-rule="evenodd" clip-rule="evenodd" d="M112.815 85.7583C143.962 102.735 151.5 151.31 133.115 183.061C120.353 205.11 98.1793 220.356 88.6556 244.21C82.5136 259.617 82.3671 276.869 79.4627 293.336C73.3207 327.918 53.4651 359.16 26.6947 379.397C19.7066 384.665 9.85203 391.227 0 395L0 82.8109C18.7898 81.5127 37.6175 80.2172 56.4073 78.8812C75.528 77.5451 95.7523 76.4439 112.815 85.7583" fill="#FF6B48"/>
<defs>
<clipPath id="clip0_375_4110">
<rect width="1649" height="690" fill="white" transform="translate(0 473)"/>
</clipPath>
</defs>
</svg>
