<svg width="1440" height="572" viewBox="0 0 1440 572" fill="none" xmlns="http://www.w3.org/2000/svg">
<g clip-path="url(#clip0_7_1734)">
<path d="M141.404 76.2464L141.021 78.273L143.058 78.5936C160.577 81.3498 174 96.6251 174 115.075C174 135.482 157.581 152 137.359 152H23.6416C3.41862 152 -13 135.482 -13 115.075C-13 94.6672 3.41862 78.1492 23.6416 78.1492H23.646H25.6153L25.6457 76.1801C25.9239 58.1659 40.504 43.6729 58.4194 43.6729C66.4362 43.6729 73.778 46.5711 79.4757 51.3894L81.1487 52.8042L82.4054 51.0094C88.3444 42.5274 98.1367 37 109.205 37C127.294 37 141.983 51.7755 141.983 70.0327C141.983 72.1584 141.784 74.2352 141.404 76.2464Z" fill="#EDF2F7" stroke="#CBD5E0" stroke-width="4"/>
<path d="M1458.69 456.532L1458.3 458.556L1460.34 458.878C1486.76 463.05 1507 486.173 1507 514.103C1507 544.995 1482.24 570 1451.75 570H1283.25C1252.76 570 1228 544.995 1228 514.103C1228 483.21 1252.76 458.205 1283.25 458.205H1283.26H1285.23L1285.26 456.236C1285.68 428.91 1307.71 406.925 1334.78 406.925C1346.9 406.925 1357.99 411.322 1366.6 418.631L1368.28 420.054L1369.54 418.25C1378.51 405.386 1393.31 397 1410.03 397C1437.37 397 1459.56 419.413 1459.56 447.107C1459.56 450.331 1459.26 453.481 1458.69 456.532Z" fill="#EDF2F7" stroke="#CBD5E0" stroke-width="4"/>
<path d="M225.893 55.635L226 54.7306L226.107 55.635C227.679 68.8792 238.121 79.3212 251.365 80.8927L252.269 81L251.365 81.1073C238.121 82.6788 227.679 93.1208 226.107 106.365L226 107.269L225.893 106.365C224.321 93.1208 213.879 82.6788 200.635 81.1073L199.731 81L200.635 80.8927C213.879 79.3212 224.321 68.8792 225.893 55.635Z" fill="#FFF299" stroke="#FFD000" stroke-width="4"/>
<path d="M253.392 26.5C261.357 24.5988 267.599 18.3575 269.5 10.3923C271.401 18.3575 277.643 24.5988 285.608 26.5C277.643 28.4013 271.401 34.6425 269.5 42.6077C267.599 34.6425 261.357 28.4012 253.392 26.5Z" fill="#FFF299" stroke="#FFD000" stroke-width="4"/>
<path d="M1269.89 327.635L1270 326.731L1270.11 327.635C1271.68 340.879 1282.12 351.321 1295.36 352.893L1296.27 353L1295.36 353.107C1282.12 354.679 1271.68 365.121 1270.11 378.365L1270 379.269L1269.89 378.365C1268.32 365.121 1257.88 354.679 1244.63 353.107L1243.73 353L1244.63 352.893C1257.88 351.321 1268.32 340.879 1269.89 327.635Z" fill="#FFF299" stroke="#FFD000" stroke-width="4"/>
<path d="M1146.13 405C1158.63 403.482 1168.48 393.631 1170 381.132C1171.52 393.631 1181.37 403.482 1193.87 405C1181.37 406.518 1171.52 416.369 1170 428.868C1168.48 416.369 1158.63 406.518 1146.13 405Z" fill="#FFF299" stroke="#FFD000" stroke-width="4"/>
</g>
<defs>
<clipPath id="clip0_7_1734">
<rect width="1440" height="572" fill="white"/>
</clipPath>
</defs>
</svg>
